<svg width="70" height="70" viewBox="0 0 99 99" fill="none" xmlns="http://www.w3.org/2000/svg">
<path d="M98.002 14.3338C95.1303 8.09965 86.6602 6.90449 74.1065 10.9422C67.9505 4.69217 60.4428 0.931425 52.5653 0.15174C44.6879 -0.627945 36.8072 1.60973 29.9541 6.57213C23.1009 11.5345 17.5941 18.9907 14.1539 27.9655C10.7138 36.9403 9.50031 47.016 10.6722 56.875C1.54926 68.552 -1.88999 78.4093 0.994543 84.6651C2.75684 88.4928 6.54173 90.4309 12.0889 90.4309C15.6372 90.3503 19.1681 89.7853 22.62 88.7458C23.3625 88.5359 24.122 88.3044 24.8901 88.0567C30.657 93.9121 37.6186 97.591 44.9716 98.669C52.3246 99.7469 59.7693 98.1799 66.4467 94.1488C73.1242 90.1177 78.7622 83.7868 82.7102 75.8866C86.6582 67.9864 88.7553 58.8389 88.7596 49.4995C88.7625 47.0256 88.6199 44.555 88.3329 42.1078C93.7819 35.1091 97.426 28.4981 98.5738 23.0122C99.295 19.6421 99.0987 16.7242 98.002 14.3338ZM49.5026 4.2773C57.7887 4.28998 65.8163 7.91882 72.2234 14.5482C78.6305 21.1776 83.0226 30.3993 84.6546 40.6488C77.7548 49.0957 68.0984 58.1347 57.1363 66.0809C45.483 74.5278 34.602 80.2128 25.7265 83.3084C20.2934 77.2192 16.4557 69.1903 14.7223 60.2863C12.9888 51.3823 13.4416 42.0238 16.0204 33.4518C18.5992 24.8799 23.1823 17.4994 29.162 12.289C35.1417 7.07865 42.2354 4.28458 49.5026 4.2773ZM3.95162 82.5009C2.13812 78.5708 5.01839 70.8723 11.5257 62.0109C13.29 70.5367 16.8252 78.3142 21.7666 84.5412C12.3193 87.1846 5.75232 86.4201 3.95162 82.5009ZM49.5026 94.7216C42.1755 94.7307 35.024 91.8923 29.0206 86.5924C38.229 83.05 48.5766 77.2411 58.8261 69.8171C69.1737 62.3124 78.2882 53.9571 85.2094 45.8925C85.2862 47.0822 85.3374 48.2828 85.3374 49.4995C85.3261 61.4869 81.5473 72.9794 74.8296 81.4568C68.112 89.9342 59.0039 94.7045 49.5026 94.7216ZM95.2796 21.8978C94.3708 26.2047 91.6185 31.3998 87.4922 37.0041C85.7168 28.4587 82.1635 20.6672 77.2001 14.4361C86.5236 11.8412 93.24 12.5734 95.0492 16.498C95.6722 17.8601 95.7533 19.6744 95.2796 21.8978Z" fill="#2364AE" fill-opacity="0.1"/>
</svg>
