<svg width="490" height="286" viewBox="0 0 490 286" fill="none" xmlns="http://www.w3.org/2000/svg">
<line x1="489" y1="91.853" y2="91.853" stroke="#E0E0E0"/>
<line x1="489" y1="15.6245" y2="15.6245" stroke="#E0E0E0"/>
<line x1="489" y1="103.348" y2="103.348" stroke="#E0E0E0"/>
<line x1="489" y1="27.1196" y2="27.1196" stroke="#E0E0E0"/>
<line x1="489.5" y1="91.353" x2="489.5" y2="102.848" stroke="#E0E0E0"/>
<line x1="489.5" y1="15.1245" x2="489.5" y2="26.6193" stroke="#E0E0E0"/>
<line x1="436.287" y1="91.353" x2="436.287" y2="102.848" stroke="#E0E0E0"/>
<line x1="436.287" y1="15.1245" x2="436.287" y2="26.6193" stroke="#E0E0E0"/>
<line x1="471.152" y1="91.353" x2="471.152" y2="102.848" stroke="#E0E0E0"/>
<line x1="471.152" y1="15.1245" x2="471.152" y2="26.6193" stroke="#E0E0E0"/>
<line x1="401.425" y1="91.353" x2="401.425" y2="102.848" stroke="#E0E0E0"/>
<line x1="401.425" y1="15.1245" x2="401.425" y2="26.6193" stroke="#E0E0E0"/>
<line x1="489.5" y1="91.958" x2="489.5" y2="103.453" stroke="#E0E0E0"/>
<line x1="489.5" y1="15.7295" x2="489.5" y2="27.2242" stroke="#E0E0E0"/>
<line x1="419.774" y1="91.958" x2="419.774" y2="103.453" stroke="#E0E0E0"/>
<line x1="419.774" y1="15.7295" x2="419.774" y2="27.2242" stroke="#E0E0E0"/>
<line x1="454.638" y1="91.958" x2="454.638" y2="103.453" stroke="#E0E0E0"/>
<line x1="454.638" y1="15.7295" x2="454.638" y2="27.2242" stroke="#E0E0E0"/>
<line x1="384.911" y1="91.958" x2="384.911" y2="103.453" stroke="#E0E0E0"/>
<line x1="384.911" y1="15.7295" x2="384.911" y2="27.2242" stroke="#E0E0E0"/>
<line x1="365.645" y1="91.353" x2="365.645" y2="102.848" stroke="#E0E0E0"/>
<line x1="365.645" y1="15.1245" x2="365.645" y2="26.6193" stroke="#E0E0E0"/>
<line x1="225.767" y1="91.353" x2="225.767" y2="102.848" stroke="#E0E0E0"/>
<line x1="225.767" y1="15.1245" x2="225.767" y2="26.6193" stroke="#E0E0E0"/>
<line x1="295.918" y1="91.353" x2="295.918" y2="102.848" stroke="#E0E0E0"/>
<line x1="295.918" y1="15.1245" x2="295.918" y2="26.6193" stroke="#E0E0E0"/>
<line x1="156.286" y1="91.353" x2="156.286" y2="102.848" stroke="#E0E0E0"/>
<line x1="156.286" y1="15.1245" x2="156.286" y2="26.6193" stroke="#E0E0E0"/>
<line x1="330.905" y1="91.353" x2="330.905" y2="102.848" stroke="#E0E0E0"/>
<line x1="330.905" y1="15.1245" x2="330.905" y2="26.6193" stroke="#E0E0E0"/>
<line x1="191.026" y1="91.353" x2="191.026" y2="102.848" stroke="#E0E0E0"/>
<line x1="191.026" y1="15.1245" x2="191.026" y2="26.6193" stroke="#E0E0E0"/>
<line x1="260.509" y1="91.353" x2="260.509" y2="102.848" stroke="#E0E0E0"/>
<line x1="260.509" y1="15.1245" x2="260.509" y2="26.6193" stroke="#E0E0E0"/>
<line x1="121.548" y1="91.353" x2="121.548" y2="102.848" stroke="#E0E0E0"/>
<line x1="121.548" y1="15.1245" x2="121.548" y2="26.6193" stroke="#E0E0E0"/>
<line x1="349.185" y1="91.958" x2="349.185" y2="103.453" stroke="#E0E0E0"/>
<line x1="349.185" y1="15.7295" x2="349.185" y2="27.2242" stroke="#E0E0E0"/>
<line x1="209.307" y1="91.958" x2="209.307" y2="103.453" stroke="#E0E0E0"/>
<line x1="209.307" y1="15.7295" x2="209.307" y2="27.2242" stroke="#E0E0E0"/>
<line x1="279.404" y1="91.958" x2="279.404" y2="103.453" stroke="#E0E0E0"/>
<line x1="279.404" y1="15.7295" x2="279.404" y2="27.2242" stroke="#E0E0E0"/>
<line x1="139.829" y1="91.958" x2="139.829" y2="103.453" stroke="#E0E0E0"/>
<line x1="139.829" y1="15.7295" x2="139.829" y2="27.2242" stroke="#E0E0E0"/>
<line x1="314.446" y1="91.958" x2="314.446" y2="103.453" stroke="#E0E0E0"/>
<line x1="314.446" y1="15.7295" x2="314.446" y2="27.2242" stroke="#E0E0E0"/>
<line x1="174.569" y1="91.958" x2="174.569" y2="103.453" stroke="#E0E0E0"/>
<line x1="174.569" y1="15.7295" x2="174.569" y2="27.2242" stroke="#E0E0E0"/>
<path d="M244.009 91.958V103.453" stroke="#E0E0E0"/>
<path d="M244.009 15.7295V27.2242" stroke="#E0E0E0"/>
<line x1="105.089" y1="91.958" x2="105.089" y2="103.453" stroke="#E0E0E0"/>
<line x1="105.089" y1="15.7295" x2="105.089" y2="27.2242" stroke="#E0E0E0"/>
<line x1="86.7402" y1="91.958" x2="86.7402" y2="103.453" stroke="#E0E0E0"/>
<line x1="86.7402" y1="15.7295" x2="86.7402" y2="27.2242" stroke="#E0E0E0"/>
<line x1="17.0142" y1="91.958" x2="17.0142" y2="103.453" stroke="#E0E0E0"/>
<line x1="17.0142" y1="15.7295" x2="17.0142" y2="27.2242" stroke="#E0E0E0"/>
<line x1="52.001" y1="91.958" x2="52.001" y2="103.453" stroke="#E0E0E0"/>
<line x1="52.001" y1="15.7295" x2="52.001" y2="27.2242" stroke="#E0E0E0"/>
<line x1="70.2808" y1="91.958" x2="70.2808" y2="103.453" stroke="#E0E0E0"/>
<line x1="70.2808" y1="15.7295" x2="70.2808" y2="27.2242" stroke="#E0E0E0"/>
<line x1="35.543" y1="91.958" x2="35.543" y2="103.453" stroke="#E0E0E0"/>
<line x1="35.543" y1="15.7295" x2="35.543" y2="27.2242" stroke="#E0E0E0"/>
<line x1="489" y1="106.978" y2="106.978" stroke="#E0E0E0"/>
<line x1="489" y1="30.7495" y2="30.7495" stroke="#E0E0E0"/>
<line x1="489" y1="118.473" y2="118.473" stroke="#E0E0E0"/>
<line x1="489" y1="42.2441" y2="42.2441" stroke="#E0E0E0"/>
<line x1="489.5" y1="106.478" x2="489.5" y2="117.972" stroke="#E0E0E0"/>
<line x1="489.5" y1="30.2495" x2="489.5" y2="41.7443" stroke="#E0E0E0"/>
<line x1="436.287" y1="106.478" x2="436.287" y2="117.972" stroke="#E0E0E0"/>
<line x1="436.287" y1="30.2495" x2="436.287" y2="41.7443" stroke="#E0E0E0"/>
<line x1="471.152" y1="106.478" x2="471.152" y2="117.972" stroke="#E0E0E0"/>
<line x1="471.152" y1="30.2495" x2="471.152" y2="41.7443" stroke="#E0E0E0"/>
<line x1="401.425" y1="106.478" x2="401.425" y2="117.972" stroke="#E0E0E0"/>
<line x1="401.425" y1="30.2495" x2="401.425" y2="41.7443" stroke="#E0E0E0"/>
<line x1="489.5" y1="107.083" x2="489.5" y2="118.577" stroke="#E0E0E0"/>
<line x1="489.5" y1="30.8545" x2="489.5" y2="42.3492" stroke="#E0E0E0"/>
<line x1="419.774" y1="107.083" x2="419.774" y2="118.577" stroke="#E0E0E0"/>
<line x1="419.774" y1="30.8545" x2="419.774" y2="42.3492" stroke="#E0E0E0"/>
<line x1="454.638" y1="107.083" x2="454.638" y2="118.577" stroke="#E0E0E0"/>
<line x1="454.638" y1="30.8545" x2="454.638" y2="42.3492" stroke="#E0E0E0"/>
<line x1="384.911" y1="107.083" x2="384.911" y2="118.577" stroke="#E0E0E0"/>
<line x1="384.911" y1="30.8545" x2="384.911" y2="42.3492" stroke="#E0E0E0"/>
<line x1="365.645" y1="106.478" x2="365.645" y2="117.972" stroke="#E0E0E0"/>
<line x1="365.645" y1="30.2495" x2="365.645" y2="41.7443" stroke="#E0E0E0"/>
<line x1="225.767" y1="106.478" x2="225.767" y2="117.972" stroke="#E0E0E0"/>
<line x1="225.767" y1="30.2495" x2="225.767" y2="41.7443" stroke="#E0E0E0"/>
<line x1="295.918" y1="106.478" x2="295.918" y2="117.972" stroke="#E0E0E0"/>
<line x1="295.918" y1="30.2495" x2="295.918" y2="41.7443" stroke="#E0E0E0"/>
<line x1="156.286" y1="106.478" x2="156.286" y2="117.972" stroke="#E0E0E0"/>
<line x1="156.286" y1="30.2495" x2="156.286" y2="41.7443" stroke="#E0E0E0"/>
<line x1="330.905" y1="106.478" x2="330.905" y2="117.972" stroke="#E0E0E0"/>
<line x1="330.905" y1="30.2495" x2="330.905" y2="41.7443" stroke="#E0E0E0"/>
<line x1="191.026" y1="106.478" x2="191.026" y2="117.972" stroke="#E0E0E0"/>
<line x1="191.026" y1="30.2495" x2="191.026" y2="41.7443" stroke="#E0E0E0"/>
<line x1="260.509" y1="106.478" x2="260.509" y2="117.972" stroke="#E0E0E0"/>
<line x1="260.509" y1="30.2495" x2="260.509" y2="41.7443" stroke="#E0E0E0"/>
<line x1="121.548" y1="106.478" x2="121.548" y2="117.972" stroke="#E0E0E0"/>
<line x1="121.548" y1="30.2495" x2="121.548" y2="41.7443" stroke="#E0E0E0"/>
<line x1="349.185" y1="107.083" x2="349.185" y2="118.577" stroke="#E0E0E0"/>
<line x1="349.185" y1="30.8545" x2="349.185" y2="42.3492" stroke="#E0E0E0"/>
<line x1="209.307" y1="107.083" x2="209.307" y2="118.577" stroke="#E0E0E0"/>
<line x1="209.307" y1="30.8545" x2="209.307" y2="42.3492" stroke="#E0E0E0"/>
<line x1="279.404" y1="107.083" x2="279.404" y2="118.577" stroke="#E0E0E0"/>
<line x1="279.404" y1="30.8545" x2="279.404" y2="42.3492" stroke="#E0E0E0"/>
<line x1="139.829" y1="107.083" x2="139.829" y2="118.577" stroke="#E0E0E0"/>
<line x1="139.829" y1="30.8545" x2="139.829" y2="42.3492" stroke="#E0E0E0"/>
<line x1="314.446" y1="107.083" x2="314.446" y2="118.577" stroke="#E0E0E0"/>
<line x1="314.446" y1="30.8545" x2="314.446" y2="42.3492" stroke="#E0E0E0"/>
<line x1="174.569" y1="107.083" x2="174.569" y2="118.577" stroke="#E0E0E0"/>
<line x1="174.569" y1="30.8545" x2="174.569" y2="42.3492" stroke="#E0E0E0"/>
<path d="M244.009 107.083V118.577" stroke="#E0E0E0"/>
<path d="M244.009 30.8545V42.3492" stroke="#E0E0E0"/>
<line x1="105.089" y1="107.083" x2="105.089" y2="118.577" stroke="#E0E0E0"/>
<line x1="105.089" y1="30.8545" x2="105.089" y2="42.3492" stroke="#E0E0E0"/>
<line x1="86.7402" y1="107.083" x2="86.7402" y2="118.577" stroke="#E0E0E0"/>
<line x1="86.7402" y1="30.8545" x2="86.7402" y2="42.3492" stroke="#E0E0E0"/>
<line x1="17.0142" y1="107.083" x2="17.0142" y2="118.577" stroke="#E0E0E0"/>
<line x1="17.0142" y1="30.8545" x2="17.0142" y2="42.3492" stroke="#E0E0E0"/>
<line x1="52.001" y1="107.083" x2="52.001" y2="118.577" stroke="#E0E0E0"/>
<line x1="52.001" y1="30.8545" x2="52.001" y2="42.3492" stroke="#E0E0E0"/>
<line x1="70.2808" y1="107.083" x2="70.2808" y2="118.577" stroke="#E0E0E0"/>
<line x1="70.2808" y1="30.8545" x2="70.2808" y2="42.3492" stroke="#E0E0E0"/>
<line x1="35.543" y1="107.083" x2="35.543" y2="118.577" stroke="#E0E0E0"/>
<line x1="35.543" y1="30.8545" x2="35.543" y2="42.3492" stroke="#E0E0E0"/>
<line x1="489" y1="167.477" y2="167.477" stroke="#E0E0E0"/>
<line x1="489" y1="178.971" y2="178.971" stroke="#E0E0E0"/>
<line x1="489.5" y1="166.977" x2="489.5" y2="178.471" stroke="#E0E0E0"/>
<line x1="436.287" y1="166.977" x2="436.287" y2="178.471" stroke="#E0E0E0"/>
<line x1="471.152" y1="166.977" x2="471.152" y2="178.471" stroke="#E0E0E0"/>
<line x1="401.425" y1="166.977" x2="401.425" y2="178.471" stroke="#E0E0E0"/>
<line x1="489.5" y1="167.582" x2="489.5" y2="179.076" stroke="#E0E0E0"/>
<line x1="419.774" y1="167.582" x2="419.774" y2="179.076" stroke="#E0E0E0"/>
<line x1="454.638" y1="167.582" x2="454.638" y2="179.076" stroke="#E0E0E0"/>
<line x1="384.911" y1="167.582" x2="384.911" y2="179.076" stroke="#E0E0E0"/>
<line x1="365.645" y1="166.977" x2="365.645" y2="178.471" stroke="#E0E0E0"/>
<line x1="225.767" y1="166.977" x2="225.767" y2="178.471" stroke="#E0E0E0"/>
<line x1="295.918" y1="166.977" x2="295.918" y2="178.471" stroke="#E0E0E0"/>
<line x1="156.286" y1="166.977" x2="156.286" y2="178.471" stroke="#E0E0E0"/>
<line x1="330.905" y1="166.977" x2="330.905" y2="178.471" stroke="#E0E0E0"/>
<line x1="191.026" y1="166.977" x2="191.026" y2="178.471" stroke="#E0E0E0"/>
<line x1="260.509" y1="166.977" x2="260.509" y2="178.471" stroke="#E0E0E0"/>
<line x1="121.548" y1="166.977" x2="121.548" y2="178.471" stroke="#E0E0E0"/>
<line x1="349.185" y1="167.582" x2="349.185" y2="179.076" stroke="#E0E0E0"/>
<line x1="209.307" y1="167.582" x2="209.307" y2="179.076" stroke="#E0E0E0"/>
<line x1="279.404" y1="167.582" x2="279.404" y2="179.076" stroke="#E0E0E0"/>
<line x1="139.829" y1="167.582" x2="139.829" y2="179.076" stroke="#E0E0E0"/>
<line x1="314.446" y1="167.582" x2="314.446" y2="179.076" stroke="#E0E0E0"/>
<line x1="174.569" y1="167.582" x2="174.569" y2="179.076" stroke="#E0E0E0"/>
<path d="M244.009 167.582V179.076" stroke="#E0E0E0"/>
<line x1="105.089" y1="167.582" x2="105.089" y2="179.076" stroke="#E0E0E0"/>
<line x1="86.7402" y1="167.582" x2="86.7402" y2="179.076" stroke="#E0E0E0"/>
<line x1="17.0142" y1="167.582" x2="17.0142" y2="179.076" stroke="#E0E0E0"/>
<line x1="52.001" y1="167.582" x2="52.001" y2="179.076" stroke="#E0E0E0"/>
<line x1="70.2808" y1="167.582" x2="70.2808" y2="179.076" stroke="#E0E0E0"/>
<line x1="35.543" y1="167.582" x2="35.543" y2="179.076" stroke="#E0E0E0"/>
<line x1="489" y1="243.1" y2="243.1" stroke="#E0E0E0"/>
<line x1="489" y1="254.595" y2="254.595" stroke="#E0E0E0"/>
<line x1="489.5" y1="242.6" x2="489.5" y2="254.094" stroke="#E0E0E0"/>
<line x1="436.287" y1="242.6" x2="436.287" y2="254.094" stroke="#E0E0E0"/>
<line x1="471.152" y1="242.6" x2="471.152" y2="254.094" stroke="#E0E0E0"/>
<line x1="401.425" y1="242.6" x2="401.425" y2="254.094" stroke="#E0E0E0"/>
<line x1="489.5" y1="243.205" x2="489.5" y2="254.699" stroke="#E0E0E0"/>
<line x1="419.774" y1="243.205" x2="419.774" y2="254.699" stroke="#E0E0E0"/>
<line x1="454.638" y1="243.205" x2="454.638" y2="254.699" stroke="#E0E0E0"/>
<line x1="384.911" y1="243.205" x2="384.911" y2="254.699" stroke="#E0E0E0"/>
<line x1="365.645" y1="242.6" x2="365.645" y2="254.094" stroke="#E0E0E0"/>
<line x1="225.767" y1="242.6" x2="225.767" y2="254.094" stroke="#E0E0E0"/>
<line x1="295.918" y1="242.6" x2="295.918" y2="254.094" stroke="#E0E0E0"/>
<line x1="156.286" y1="242.6" x2="156.286" y2="254.094" stroke="#E0E0E0"/>
<line x1="330.905" y1="242.6" x2="330.905" y2="254.094" stroke="#E0E0E0"/>
<line x1="191.026" y1="242.6" x2="191.026" y2="254.094" stroke="#E0E0E0"/>
<line x1="260.509" y1="242.6" x2="260.509" y2="254.094" stroke="#E0E0E0"/>
<line x1="121.548" y1="242.6" x2="121.548" y2="254.094" stroke="#E0E0E0"/>
<line x1="349.185" y1="243.205" x2="349.185" y2="254.699" stroke="#E0E0E0"/>
<line x1="209.307" y1="243.205" x2="209.307" y2="254.699" stroke="#E0E0E0"/>
<line x1="279.404" y1="243.205" x2="279.404" y2="254.699" stroke="#E0E0E0"/>
<line x1="139.829" y1="243.205" x2="139.829" y2="254.699" stroke="#E0E0E0"/>
<line x1="314.446" y1="243.205" x2="314.446" y2="254.699" stroke="#E0E0E0"/>
<line x1="174.569" y1="243.205" x2="174.569" y2="254.699" stroke="#E0E0E0"/>
<path d="M244.009 243.205V254.699" stroke="#E0E0E0"/>
<line x1="105.089" y1="243.205" x2="105.089" y2="254.699" stroke="#E0E0E0"/>
<line x1="86.7402" y1="243.205" x2="86.7402" y2="254.699" stroke="#E0E0E0"/>
<line x1="17.0142" y1="243.205" x2="17.0142" y2="254.699" stroke="#E0E0E0"/>
<line x1="52.001" y1="243.205" x2="52.001" y2="254.699" stroke="#E0E0E0"/>
<line x1="70.2808" y1="243.205" x2="70.2808" y2="254.699" stroke="#E0E0E0"/>
<line x1="35.543" y1="243.205" x2="35.543" y2="254.699" stroke="#E0E0E0"/>
<line x1="489" y1="137.227" y2="137.227" stroke="#E0E0E0"/>
<line x1="489" y1="60.9985" y2="60.9985" stroke="#E0E0E0"/>
<line x1="489" y1="148.722" y2="148.722" stroke="#E0E0E0"/>
<line x1="489" y1="72.4937" y2="72.4937" stroke="#E0E0E0"/>
<line x1="489.5" y1="136.727" x2="489.5" y2="148.222" stroke="#E0E0E0"/>
<line x1="489.5" y1="60.4985" x2="489.5" y2="71.9933" stroke="#E0E0E0"/>
<line x1="436.287" y1="136.727" x2="436.287" y2="148.222" stroke="#E0E0E0"/>
<line x1="436.287" y1="60.4985" x2="436.287" y2="71.9933" stroke="#E0E0E0"/>
<line x1="471.152" y1="136.727" x2="471.152" y2="148.222" stroke="#E0E0E0"/>
<line x1="471.152" y1="60.4985" x2="471.152" y2="71.9933" stroke="#E0E0E0"/>
<line x1="401.425" y1="136.727" x2="401.425" y2="148.222" stroke="#E0E0E0"/>
<line x1="401.425" y1="60.4985" x2="401.425" y2="71.9933" stroke="#E0E0E0"/>
<line x1="489.5" y1="137.332" x2="489.5" y2="148.827" stroke="#E0E0E0"/>
<line x1="489.5" y1="61.1035" x2="489.5" y2="72.5983" stroke="#E0E0E0"/>
<line x1="419.774" y1="137.332" x2="419.774" y2="148.827" stroke="#E0E0E0"/>
<line x1="419.774" y1="61.1035" x2="419.774" y2="72.5983" stroke="#E0E0E0"/>
<line x1="454.638" y1="137.332" x2="454.638" y2="148.827" stroke="#E0E0E0"/>
<line x1="454.638" y1="61.1035" x2="454.638" y2="72.5983" stroke="#E0E0E0"/>
<line x1="384.911" y1="137.332" x2="384.911" y2="148.827" stroke="#E0E0E0"/>
<line x1="384.911" y1="61.1035" x2="384.911" y2="72.5983" stroke="#E0E0E0"/>
<line x1="365.645" y1="136.727" x2="365.645" y2="148.222" stroke="#E0E0E0"/>
<line x1="365.645" y1="60.4985" x2="365.645" y2="71.9933" stroke="#E0E0E0"/>
<line x1="225.767" y1="136.727" x2="225.767" y2="148.222" stroke="#E0E0E0"/>
<line x1="225.767" y1="60.4985" x2="225.767" y2="71.9933" stroke="#E0E0E0"/>
<line x1="295.918" y1="136.727" x2="295.918" y2="148.222" stroke="#E0E0E0"/>
<line x1="295.918" y1="60.4985" x2="295.918" y2="71.9933" stroke="#E0E0E0"/>
<line x1="156.286" y1="136.727" x2="156.286" y2="148.222" stroke="#E0E0E0"/>
<line x1="156.286" y1="60.4985" x2="156.286" y2="71.9933" stroke="#E0E0E0"/>
<line x1="330.905" y1="136.727" x2="330.905" y2="148.222" stroke="#E0E0E0"/>
<line x1="330.905" y1="60.4985" x2="330.905" y2="71.9933" stroke="#E0E0E0"/>
<line x1="191.026" y1="136.727" x2="191.026" y2="148.222" stroke="#E0E0E0"/>
<line x1="191.026" y1="60.4985" x2="191.026" y2="71.9933" stroke="#E0E0E0"/>
<line x1="260.509" y1="136.727" x2="260.509" y2="148.222" stroke="#E0E0E0"/>
<line x1="260.509" y1="60.4985" x2="260.509" y2="71.9933" stroke="#E0E0E0"/>
<line x1="121.548" y1="136.727" x2="121.548" y2="148.222" stroke="#E0E0E0"/>
<line x1="121.548" y1="60.4985" x2="121.548" y2="71.9933" stroke="#E0E0E0"/>
<line x1="349.185" y1="137.332" x2="349.185" y2="148.827" stroke="#E0E0E0"/>
<line x1="349.185" y1="61.1035" x2="349.185" y2="72.5983" stroke="#E0E0E0"/>
<line x1="209.307" y1="137.332" x2="209.307" y2="148.827" stroke="#E0E0E0"/>
<line x1="209.307" y1="61.1035" x2="209.307" y2="72.5983" stroke="#E0E0E0"/>
<line x1="279.404" y1="137.332" x2="279.404" y2="148.827" stroke="#E0E0E0"/>
<line x1="279.404" y1="61.1035" x2="279.404" y2="72.5983" stroke="#E0E0E0"/>
<line x1="139.829" y1="137.332" x2="139.829" y2="148.827" stroke="#E0E0E0"/>
<line x1="139.829" y1="61.1035" x2="139.829" y2="72.5983" stroke="#E0E0E0"/>
<line x1="314.446" y1="137.332" x2="314.446" y2="148.827" stroke="#E0E0E0"/>
<line x1="314.446" y1="61.1035" x2="314.446" y2="72.5983" stroke="#E0E0E0"/>
<line x1="174.569" y1="137.332" x2="174.569" y2="148.827" stroke="#E0E0E0"/>
<line x1="174.569" y1="61.1035" x2="174.569" y2="72.5983" stroke="#E0E0E0"/>
<path d="M244.009 137.332V148.827" stroke="#E0E0E0"/>
<path d="M244.009 61.1035V72.5983" stroke="#E0E0E0"/>
<line x1="105.089" y1="137.332" x2="105.089" y2="148.827" stroke="#E0E0E0"/>
<line x1="105.089" y1="61.1035" x2="105.089" y2="72.5983" stroke="#E0E0E0"/>
<line x1="86.7402" y1="137.332" x2="86.7402" y2="148.827" stroke="#E0E0E0"/>
<line x1="86.7402" y1="61.1035" x2="86.7402" y2="72.5983" stroke="#E0E0E0"/>
<line x1="17.0142" y1="137.332" x2="17.0142" y2="148.827" stroke="#E0E0E0"/>
<line x1="17.0142" y1="61.1035" x2="17.0142" y2="72.5983" stroke="#E0E0E0"/>
<line x1="52.001" y1="137.332" x2="52.001" y2="148.827" stroke="#E0E0E0"/>
<line x1="52.001" y1="61.1035" x2="52.001" y2="72.5983" stroke="#E0E0E0"/>
<line x1="70.2808" y1="137.332" x2="70.2808" y2="148.827" stroke="#E0E0E0"/>
<line x1="70.2808" y1="61.1035" x2="70.2808" y2="72.5983" stroke="#E0E0E0"/>
<line x1="35.543" y1="137.332" x2="35.543" y2="148.827" stroke="#E0E0E0"/>
<line x1="35.543" y1="61.1035" x2="35.543" y2="72.5983" stroke="#E0E0E0"/>
<line x1="489" y1="76.7285" y2="76.7285" stroke="#E0E0E0"/>
<line x1="489" y1="0.5" y2="0.5" stroke="#E0E0E0"/>
<line x1="489" y1="88.2231" y2="88.2231" stroke="#E0E0E0"/>
<line x1="489" y1="11.9946" y2="11.9946" stroke="#E0E0E0"/>
<line x1="489.5" y1="76.2285" x2="489.5" y2="87.7233" stroke="#E0E0E0"/>
<line x1="489.5" x2="489.5" y2="11.4948" stroke="#E0E0E0"/>
<line x1="436.287" y1="76.2285" x2="436.287" y2="87.7233" stroke="#E0E0E0"/>
<line x1="436.287" x2="436.287" y2="11.4948" stroke="#E0E0E0"/>
<line x1="471.152" y1="76.2285" x2="471.152" y2="87.7233" stroke="#E0E0E0"/>
<line x1="471.152" x2="471.152" y2="11.4948" stroke="#E0E0E0"/>
<line x1="401.425" y1="76.2285" x2="401.425" y2="87.7233" stroke="#E0E0E0"/>
<line x1="401.425" x2="401.425" y2="11.4948" stroke="#E0E0E0"/>
<line x1="489.5" y1="76.8335" x2="489.5" y2="88.3282" stroke="#E0E0E0"/>
<line x1="489.5" y1="0.60498" x2="489.5" y2="12.0997" stroke="#E0E0E0"/>
<line x1="419.774" y1="76.8335" x2="419.774" y2="88.3282" stroke="#E0E0E0"/>
<line x1="419.774" y1="0.60498" x2="419.774" y2="12.0997" stroke="#E0E0E0"/>
<line x1="454.638" y1="76.8335" x2="454.638" y2="88.3282" stroke="#E0E0E0"/>
<line x1="454.638" y1="0.60498" x2="454.638" y2="12.0997" stroke="#E0E0E0"/>
<line x1="384.911" y1="76.8335" x2="384.911" y2="88.3282" stroke="#E0E0E0"/>
<line x1="384.911" y1="0.60498" x2="384.911" y2="12.0997" stroke="#E0E0E0"/>
<line x1="365.645" y1="76.2285" x2="365.645" y2="87.7233" stroke="#E0E0E0"/>
<line x1="365.645" x2="365.645" y2="11.4948" stroke="#E0E0E0"/>
<line x1="225.767" y1="76.2285" x2="225.767" y2="87.7233" stroke="#E0E0E0"/>
<line x1="225.767" x2="225.767" y2="11.4948" stroke="#E0E0E0"/>
<line x1="295.918" y1="76.2285" x2="295.918" y2="87.7233" stroke="#E0E0E0"/>
<line x1="295.918" x2="295.918" y2="11.4948" stroke="#E0E0E0"/>
<line x1="156.286" y1="76.2285" x2="156.286" y2="87.7233" stroke="#E0E0E0"/>
<line x1="156.286" x2="156.286" y2="11.4948" stroke="#E0E0E0"/>
<line x1="330.905" y1="76.2285" x2="330.905" y2="87.7233" stroke="#E0E0E0"/>
<line x1="330.905" x2="330.905" y2="11.4948" stroke="#E0E0E0"/>
<line x1="191.026" y1="76.2285" x2="191.026" y2="87.7233" stroke="#E0E0E0"/>
<line x1="191.026" x2="191.026" y2="11.4948" stroke="#E0E0E0"/>
<line x1="260.509" y1="76.2285" x2="260.509" y2="87.7233" stroke="#E0E0E0"/>
<line x1="260.509" x2="260.509" y2="11.4948" stroke="#E0E0E0"/>
<line x1="121.548" y1="76.2285" x2="121.548" y2="87.7233" stroke="#E0E0E0"/>
<line x1="121.548" x2="121.548" y2="11.4948" stroke="#E0E0E0"/>
<line x1="349.185" y1="76.8335" x2="349.185" y2="88.3282" stroke="#E0E0E0"/>
<line x1="349.185" y1="0.60498" x2="349.185" y2="12.0997" stroke="#E0E0E0"/>
<line x1="209.307" y1="76.8335" x2="209.307" y2="88.3282" stroke="#E0E0E0"/>
<line x1="209.307" y1="0.60498" x2="209.307" y2="12.0997" stroke="#E0E0E0"/>
<line x1="279.404" y1="76.8335" x2="279.404" y2="88.3282" stroke="#E0E0E0"/>
<line x1="279.404" y1="0.60498" x2="279.404" y2="12.0997" stroke="#E0E0E0"/>
<line x1="139.829" y1="76.8335" x2="139.829" y2="88.3282" stroke="#E0E0E0"/>
<line x1="139.829" y1="0.60498" x2="139.829" y2="12.0997" stroke="#E0E0E0"/>
<line x1="314.446" y1="76.8335" x2="314.446" y2="88.3282" stroke="#E0E0E0"/>
<line x1="314.446" y1="0.60498" x2="314.446" y2="12.0997" stroke="#E0E0E0"/>
<line x1="174.569" y1="76.8335" x2="174.569" y2="88.3282" stroke="#E0E0E0"/>
<line x1="174.569" y1="0.60498" x2="174.569" y2="12.0997" stroke="#E0E0E0"/>
<path d="M244.009 76.8335V88.3282" stroke="#E0E0E0"/>
<path d="M244.009 0.60498V12.0997" stroke="#E0E0E0"/>
<line x1="105.089" y1="76.8335" x2="105.089" y2="88.3282" stroke="#E0E0E0"/>
<line x1="105.089" y1="0.60498" x2="105.089" y2="12.0997" stroke="#E0E0E0"/>
<line x1="86.7402" y1="76.8335" x2="86.7402" y2="88.3282" stroke="#E0E0E0"/>
<line x1="86.7402" y1="0.60498" x2="86.7402" y2="12.0997" stroke="#E0E0E0"/>
<line x1="17.0142" y1="76.8335" x2="17.0142" y2="88.3282" stroke="#E0E0E0"/>
<line x1="17.0142" y1="0.60498" x2="17.0142" y2="12.0997" stroke="#E0E0E0"/>
<line x1="52.001" y1="76.8335" x2="52.001" y2="88.3282" stroke="#E0E0E0"/>
<line x1="52.001" y1="0.60498" x2="52.001" y2="12.0997" stroke="#E0E0E0"/>
<line x1="70.2808" y1="76.8335" x2="70.2808" y2="88.3282" stroke="#E0E0E0"/>
<line x1="70.2808" y1="0.60498" x2="70.2808" y2="12.0997" stroke="#E0E0E0"/>
<line x1="35.543" y1="76.8335" x2="35.543" y2="88.3282" stroke="#E0E0E0"/>
<line x1="35.543" y1="0.60498" x2="35.543" y2="12.0997" stroke="#E0E0E0"/>
<line x1="489" y1="197.726" y2="197.726" stroke="#E0E0E0"/>
<line x1="489" y1="209.221" y2="209.221" stroke="#E0E0E0"/>
<line x1="489.5" y1="197.226" x2="489.5" y2="208.72" stroke="#E0E0E0"/>
<line x1="436.287" y1="197.226" x2="436.287" y2="208.72" stroke="#E0E0E0"/>
<line x1="471.152" y1="197.226" x2="471.152" y2="208.72" stroke="#E0E0E0"/>
<line x1="401.425" y1="197.226" x2="401.425" y2="208.72" stroke="#E0E0E0"/>
<line x1="489.5" y1="197.831" x2="489.5" y2="209.325" stroke="#E0E0E0"/>
<line x1="419.774" y1="197.831" x2="419.774" y2="209.325" stroke="#E0E0E0"/>
<line x1="454.638" y1="197.831" x2="454.638" y2="209.325" stroke="#E0E0E0"/>
<line x1="384.911" y1="197.831" x2="384.911" y2="209.325" stroke="#E0E0E0"/>
<line x1="365.645" y1="197.226" x2="365.645" y2="208.72" stroke="#E0E0E0"/>
<line x1="225.767" y1="197.226" x2="225.767" y2="208.72" stroke="#E0E0E0"/>
<line x1="295.918" y1="197.226" x2="295.918" y2="208.72" stroke="#E0E0E0"/>
<line x1="156.286" y1="197.226" x2="156.286" y2="208.72" stroke="#E0E0E0"/>
<line x1="330.905" y1="197.226" x2="330.905" y2="208.72" stroke="#E0E0E0"/>
<line x1="191.026" y1="197.226" x2="191.026" y2="208.72" stroke="#E0E0E0"/>
<line x1="260.509" y1="197.226" x2="260.509" y2="208.72" stroke="#E0E0E0"/>
<line x1="121.548" y1="197.226" x2="121.548" y2="208.72" stroke="#E0E0E0"/>
<line x1="349.185" y1="197.831" x2="349.185" y2="209.325" stroke="#E0E0E0"/>
<line x1="209.307" y1="197.831" x2="209.307" y2="209.325" stroke="#E0E0E0"/>
<line x1="279.404" y1="197.831" x2="279.404" y2="209.325" stroke="#E0E0E0"/>
<line x1="139.829" y1="197.831" x2="139.829" y2="209.325" stroke="#E0E0E0"/>
<line x1="314.446" y1="197.831" x2="314.446" y2="209.325" stroke="#E0E0E0"/>
<line x1="174.569" y1="197.831" x2="174.569" y2="209.325" stroke="#E0E0E0"/>
<path d="M244.009 197.831V209.325" stroke="#E0E0E0"/>
<line x1="105.089" y1="197.831" x2="105.089" y2="209.325" stroke="#E0E0E0"/>
<line x1="86.7402" y1="197.831" x2="86.7402" y2="209.325" stroke="#E0E0E0"/>
<line x1="17.0142" y1="197.831" x2="17.0142" y2="209.325" stroke="#E0E0E0"/>
<line x1="52.001" y1="197.831" x2="52.001" y2="209.325" stroke="#E0E0E0"/>
<line x1="70.2808" y1="197.831" x2="70.2808" y2="209.325" stroke="#E0E0E0"/>
<line x1="35.543" y1="197.831" x2="35.543" y2="209.325" stroke="#E0E0E0"/>
<line x1="489" y1="273.349" y2="273.349" stroke="#E0E0E0"/>
<line x1="489" y1="284.844" y2="284.844" stroke="#E0E0E0"/>
<line x1="489.5" y1="272.849" x2="489.5" y2="284.344" stroke="#E0E0E0"/>
<line x1="436.287" y1="272.849" x2="436.287" y2="284.344" stroke="#E0E0E0"/>
<line x1="471.152" y1="272.849" x2="471.152" y2="284.344" stroke="#E0E0E0"/>
<line x1="401.425" y1="272.849" x2="401.425" y2="284.344" stroke="#E0E0E0"/>
<line x1="489.5" y1="273.454" x2="489.5" y2="284.949" stroke="#E0E0E0"/>
<line x1="419.774" y1="273.454" x2="419.774" y2="284.949" stroke="#E0E0E0"/>
<line x1="454.638" y1="273.454" x2="454.638" y2="284.949" stroke="#E0E0E0"/>
<line x1="384.911" y1="273.454" x2="384.911" y2="284.949" stroke="#E0E0E0"/>
<line x1="365.645" y1="272.849" x2="365.645" y2="284.344" stroke="#E0E0E0"/>
<line x1="225.767" y1="272.849" x2="225.767" y2="284.344" stroke="#E0E0E0"/>
<line x1="295.918" y1="272.849" x2="295.918" y2="284.344" stroke="#E0E0E0"/>
<line x1="156.286" y1="272.849" x2="156.286" y2="284.344" stroke="#E0E0E0"/>
<line x1="330.905" y1="272.849" x2="330.905" y2="284.344" stroke="#E0E0E0"/>
<line x1="191.026" y1="272.849" x2="191.026" y2="284.344" stroke="#E0E0E0"/>
<line x1="260.509" y1="272.849" x2="260.509" y2="284.344" stroke="#E0E0E0"/>
<line x1="121.548" y1="272.849" x2="121.548" y2="284.344" stroke="#E0E0E0"/>
<line x1="349.185" y1="273.454" x2="349.185" y2="284.949" stroke="#E0E0E0"/>
<line x1="209.307" y1="273.454" x2="209.307" y2="284.949" stroke="#E0E0E0"/>
<line x1="279.404" y1="273.454" x2="279.404" y2="284.949" stroke="#E0E0E0"/>
<line x1="139.829" y1="273.454" x2="139.829" y2="284.949" stroke="#E0E0E0"/>
<line x1="314.446" y1="273.454" x2="314.446" y2="284.949" stroke="#E0E0E0"/>
<line x1="174.569" y1="273.454" x2="174.569" y2="284.949" stroke="#E0E0E0"/>
<path d="M244.009 273.454V284.949" stroke="#E0E0E0"/>
<line x1="105.089" y1="273.454" x2="105.089" y2="284.949" stroke="#E0E0E0"/>
<line x1="86.7402" y1="273.454" x2="86.7402" y2="284.949" stroke="#E0E0E0"/>
<line x1="17.0142" y1="273.454" x2="17.0142" y2="284.949" stroke="#E0E0E0"/>
<line x1="52.001" y1="273.454" x2="52.001" y2="284.949" stroke="#E0E0E0"/>
<line x1="70.2808" y1="273.454" x2="70.2808" y2="284.949" stroke="#E0E0E0"/>
<line x1="35.543" y1="273.454" x2="35.543" y2="284.949" stroke="#E0E0E0"/>
<line x1="489" y1="122.103" y2="122.103" stroke="#E0E0E0"/>
<line x1="489" y1="45.874" y2="45.874" stroke="#E0E0E0"/>
<line x1="489" y1="133.597" y2="133.597" stroke="#E0E0E0"/>
<line x1="489" y1="57.3687" y2="57.3687" stroke="#E0E0E0"/>
<line x1="489.5" y1="121.603" x2="489.5" y2="133.097" stroke="#E0E0E0"/>
<line x1="489.5" y1="45.374" x2="489.5" y2="56.8688" stroke="#E0E0E0"/>
<line x1="436.287" y1="121.603" x2="436.287" y2="133.097" stroke="#E0E0E0"/>
<line x1="436.287" y1="45.374" x2="436.287" y2="56.8688" stroke="#E0E0E0"/>
<line x1="471.152" y1="121.603" x2="471.152" y2="133.097" stroke="#E0E0E0"/>
<line x1="471.152" y1="45.374" x2="471.152" y2="56.8688" stroke="#E0E0E0"/>
<line x1="401.425" y1="121.603" x2="401.425" y2="133.097" stroke="#E0E0E0"/>
<line x1="401.425" y1="45.374" x2="401.425" y2="56.8688" stroke="#E0E0E0"/>
<line x1="489.5" y1="122.208" x2="489.5" y2="133.702" stroke="#E0E0E0"/>
<line x1="489.5" y1="45.979" x2="489.5" y2="57.4738" stroke="#E0E0E0"/>
<line x1="419.774" y1="122.208" x2="419.774" y2="133.702" stroke="#E0E0E0"/>
<line x1="419.774" y1="45.979" x2="419.774" y2="57.4738" stroke="#E0E0E0"/>
<line x1="454.638" y1="122.208" x2="454.638" y2="133.702" stroke="#E0E0E0"/>
<line x1="454.638" y1="45.979" x2="454.638" y2="57.4738" stroke="#E0E0E0"/>
<line x1="384.911" y1="122.208" x2="384.911" y2="133.702" stroke="#E0E0E0"/>
<line x1="384.911" y1="45.979" x2="384.911" y2="57.4738" stroke="#E0E0E0"/>
<line x1="365.645" y1="121.603" x2="365.645" y2="133.097" stroke="#E0E0E0"/>
<line x1="365.645" y1="45.374" x2="365.645" y2="56.8688" stroke="#E0E0E0"/>
<line x1="225.767" y1="121.603" x2="225.767" y2="133.097" stroke="#E0E0E0"/>
<line x1="225.767" y1="45.374" x2="225.767" y2="56.8688" stroke="#E0E0E0"/>
<line x1="295.918" y1="121.603" x2="295.918" y2="133.097" stroke="#E0E0E0"/>
<line x1="295.918" y1="45.374" x2="295.918" y2="56.8688" stroke="#E0E0E0"/>
<line x1="156.286" y1="121.603" x2="156.286" y2="133.097" stroke="#E0E0E0"/>
<line x1="156.286" y1="45.374" x2="156.286" y2="56.8688" stroke="#E0E0E0"/>
<line x1="330.905" y1="121.603" x2="330.905" y2="133.097" stroke="#E0E0E0"/>
<line x1="330.905" y1="45.374" x2="330.905" y2="56.8688" stroke="#E0E0E0"/>
<line x1="191.026" y1="121.603" x2="191.026" y2="133.097" stroke="#E0E0E0"/>
<line x1="191.026" y1="45.374" x2="191.026" y2="56.8688" stroke="#E0E0E0"/>
<line x1="260.509" y1="121.603" x2="260.509" y2="133.097" stroke="#E0E0E0"/>
<line x1="260.509" y1="45.374" x2="260.509" y2="56.8688" stroke="#E0E0E0"/>
<line x1="121.548" y1="121.603" x2="121.548" y2="133.097" stroke="#E0E0E0"/>
<line x1="121.548" y1="45.374" x2="121.548" y2="56.8688" stroke="#E0E0E0"/>
<line x1="349.185" y1="122.208" x2="349.185" y2="133.702" stroke="#E0E0E0"/>
<line x1="349.185" y1="45.979" x2="349.185" y2="57.4738" stroke="#E0E0E0"/>
<line x1="209.307" y1="122.208" x2="209.307" y2="133.702" stroke="#E0E0E0"/>
<line x1="209.307" y1="45.979" x2="209.307" y2="57.4738" stroke="#E0E0E0"/>
<line x1="279.404" y1="122.208" x2="279.404" y2="133.702" stroke="#E0E0E0"/>
<line x1="279.404" y1="45.979" x2="279.404" y2="57.4738" stroke="#E0E0E0"/>
<line x1="139.829" y1="122.208" x2="139.829" y2="133.702" stroke="#E0E0E0"/>
<line x1="139.829" y1="45.979" x2="139.829" y2="57.4738" stroke="#E0E0E0"/>
<line x1="314.446" y1="122.208" x2="314.446" y2="133.702" stroke="#E0E0E0"/>
<line x1="314.446" y1="45.979" x2="314.446" y2="57.4738" stroke="#E0E0E0"/>
<line x1="174.569" y1="122.208" x2="174.569" y2="133.702" stroke="#E0E0E0"/>
<line x1="174.569" y1="45.979" x2="174.569" y2="57.4738" stroke="#E0E0E0"/>
<path d="M244.009 122.208V133.702" stroke="#E0E0E0"/>
<path d="M244.009 45.979V57.4738" stroke="#E0E0E0"/>
<line x1="105.089" y1="122.208" x2="105.089" y2="133.702" stroke="#E0E0E0"/>
<line x1="105.089" y1="45.979" x2="105.089" y2="57.4738" stroke="#E0E0E0"/>
<line x1="86.7402" y1="122.208" x2="86.7402" y2="133.702" stroke="#E0E0E0"/>
<line x1="86.7402" y1="45.979" x2="86.7402" y2="57.4738" stroke="#E0E0E0"/>
<line x1="17.0142" y1="122.208" x2="17.0142" y2="133.702" stroke="#E0E0E0"/>
<line x1="17.0142" y1="45.979" x2="17.0142" y2="57.4738" stroke="#E0E0E0"/>
<line x1="52.001" y1="122.208" x2="52.001" y2="133.702" stroke="#E0E0E0"/>
<line x1="52.001" y1="45.979" x2="52.001" y2="57.4738" stroke="#E0E0E0"/>
<line x1="70.2808" y1="122.208" x2="70.2808" y2="133.702" stroke="#E0E0E0"/>
<line x1="70.2808" y1="45.979" x2="70.2808" y2="57.4738" stroke="#E0E0E0"/>
<line x1="35.543" y1="122.208" x2="35.543" y2="133.702" stroke="#E0E0E0"/>
<line x1="35.543" y1="45.979" x2="35.543" y2="57.4738" stroke="#E0E0E0"/>
<line x1="489" y1="182.601" y2="182.601" stroke="#E0E0E0"/>
<line x1="489" y1="194.096" y2="194.096" stroke="#E0E0E0"/>
<line x1="489.5" y1="182.101" x2="489.5" y2="193.596" stroke="#E0E0E0"/>
<line x1="436.287" y1="182.101" x2="436.287" y2="193.596" stroke="#E0E0E0"/>
<line x1="471.152" y1="182.101" x2="471.152" y2="193.596" stroke="#E0E0E0"/>
<line x1="401.425" y1="182.101" x2="401.425" y2="193.596" stroke="#E0E0E0"/>
<line x1="489.5" y1="182.706" x2="489.5" y2="194.201" stroke="#E0E0E0"/>
<line x1="419.774" y1="182.706" x2="419.774" y2="194.201" stroke="#E0E0E0"/>
<line x1="454.638" y1="182.706" x2="454.638" y2="194.201" stroke="#E0E0E0"/>
<line x1="384.911" y1="182.706" x2="384.911" y2="194.201" stroke="#E0E0E0"/>
<line x1="365.645" y1="182.101" x2="365.645" y2="193.596" stroke="#E0E0E0"/>
<line x1="225.767" y1="182.101" x2="225.767" y2="193.596" stroke="#E0E0E0"/>
<line x1="295.918" y1="182.101" x2="295.918" y2="193.596" stroke="#E0E0E0"/>
<line x1="156.286" y1="182.101" x2="156.286" y2="193.596" stroke="#E0E0E0"/>
<line x1="330.905" y1="182.101" x2="330.905" y2="193.596" stroke="#E0E0E0"/>
<line x1="191.026" y1="182.101" x2="191.026" y2="193.596" stroke="#E0E0E0"/>
<line x1="260.509" y1="182.101" x2="260.509" y2="193.596" stroke="#E0E0E0"/>
<line x1="121.548" y1="182.101" x2="121.548" y2="193.596" stroke="#E0E0E0"/>
<line x1="349.185" y1="182.706" x2="349.185" y2="194.201" stroke="#E0E0E0"/>
<line x1="209.307" y1="182.706" x2="209.307" y2="194.201" stroke="#E0E0E0"/>
<line x1="279.404" y1="182.706" x2="279.404" y2="194.201" stroke="#E0E0E0"/>
<line x1="139.829" y1="182.706" x2="139.829" y2="194.201" stroke="#E0E0E0"/>
<line x1="314.446" y1="182.706" x2="314.446" y2="194.201" stroke="#E0E0E0"/>
<line x1="174.569" y1="182.706" x2="174.569" y2="194.201" stroke="#E0E0E0"/>
<path d="M244.009 182.706V194.201" stroke="#E0E0E0"/>
<line x1="105.089" y1="182.706" x2="105.089" y2="194.201" stroke="#E0E0E0"/>
<line x1="86.7402" y1="182.706" x2="86.7402" y2="194.201" stroke="#E0E0E0"/>
<line x1="17.0142" y1="182.706" x2="17.0142" y2="194.201" stroke="#E0E0E0"/>
<line x1="52.001" y1="182.706" x2="52.001" y2="194.201" stroke="#E0E0E0"/>
<line x1="70.2808" y1="182.706" x2="70.2808" y2="194.201" stroke="#E0E0E0"/>
<line x1="35.543" y1="182.706" x2="35.543" y2="194.201" stroke="#E0E0E0"/>
<line x1="489" y1="258.225" y2="258.225" stroke="#E0E0E0"/>
<line x1="489" y1="269.719" y2="269.719" stroke="#E0E0E0"/>
<line x1="489.5" y1="257.725" x2="489.5" y2="269.219" stroke="#E0E0E0"/>
<line x1="436.287" y1="257.725" x2="436.287" y2="269.219" stroke="#E0E0E0"/>
<line x1="471.152" y1="257.725" x2="471.152" y2="269.219" stroke="#E0E0E0"/>
<line x1="401.425" y1="257.725" x2="401.425" y2="269.219" stroke="#E0E0E0"/>
<line x1="489.5" y1="258.33" x2="489.5" y2="269.824" stroke="#E0E0E0"/>
<line x1="419.774" y1="258.33" x2="419.774" y2="269.824" stroke="#E0E0E0"/>
<line x1="454.638" y1="258.33" x2="454.638" y2="269.824" stroke="#E0E0E0"/>
<line x1="384.911" y1="258.33" x2="384.911" y2="269.824" stroke="#E0E0E0"/>
<line x1="365.645" y1="257.725" x2="365.645" y2="269.219" stroke="#E0E0E0"/>
<line x1="225.767" y1="257.725" x2="225.767" y2="269.219" stroke="#E0E0E0"/>
<line x1="295.918" y1="257.725" x2="295.918" y2="269.219" stroke="#E0E0E0"/>
<line x1="156.286" y1="257.725" x2="156.286" y2="269.219" stroke="#E0E0E0"/>
<line x1="330.905" y1="257.725" x2="330.905" y2="269.219" stroke="#E0E0E0"/>
<line x1="191.026" y1="257.725" x2="191.026" y2="269.219" stroke="#E0E0E0"/>
<line x1="260.509" y1="257.725" x2="260.509" y2="269.219" stroke="#E0E0E0"/>
<line x1="121.548" y1="257.725" x2="121.548" y2="269.219" stroke="#E0E0E0"/>
<line x1="349.185" y1="258.33" x2="349.185" y2="269.824" stroke="#E0E0E0"/>
<line x1="209.307" y1="258.33" x2="209.307" y2="269.824" stroke="#E0E0E0"/>
<line x1="279.404" y1="258.33" x2="279.404" y2="269.824" stroke="#E0E0E0"/>
<line x1="139.829" y1="258.33" x2="139.829" y2="269.824" stroke="#E0E0E0"/>
<line x1="314.446" y1="258.33" x2="314.446" y2="269.824" stroke="#E0E0E0"/>
<line x1="174.569" y1="258.33" x2="174.569" y2="269.824" stroke="#E0E0E0"/>
<path d="M244.009 258.33V269.824" stroke="#E0E0E0"/>
<line x1="105.089" y1="258.33" x2="105.089" y2="269.824" stroke="#E0E0E0"/>
<line x1="86.7402" y1="258.33" x2="86.7402" y2="269.824" stroke="#E0E0E0"/>
<line x1="17.0142" y1="258.33" x2="17.0142" y2="269.824" stroke="#E0E0E0"/>
<line x1="52.001" y1="258.33" x2="52.001" y2="269.824" stroke="#E0E0E0"/>
<line x1="70.2808" y1="258.33" x2="70.2808" y2="269.824" stroke="#E0E0E0"/>
<line x1="35.543" y1="258.33" x2="35.543" y2="269.824" stroke="#E0E0E0"/>
<line x1="489" y1="152.352" y2="152.352" stroke="#E0E0E0"/>
<line x1="489" y1="163.847" y2="163.847" stroke="#E0E0E0"/>
<line x1="489.5" y1="151.852" x2="489.5" y2="163.346" stroke="#E0E0E0"/>
<line x1="436.287" y1="151.852" x2="436.287" y2="163.346" stroke="#E0E0E0"/>
<line x1="471.152" y1="151.852" x2="471.152" y2="163.346" stroke="#E0E0E0"/>
<line x1="401.425" y1="151.852" x2="401.425" y2="163.346" stroke="#E0E0E0"/>
<line x1="489.5" y1="152.457" x2="489.5" y2="163.951" stroke="#E0E0E0"/>
<line x1="419.774" y1="152.457" x2="419.774" y2="163.951" stroke="#E0E0E0"/>
<line x1="454.638" y1="152.457" x2="454.638" y2="163.951" stroke="#E0E0E0"/>
<line x1="384.911" y1="152.457" x2="384.911" y2="163.951" stroke="#E0E0E0"/>
<line x1="365.645" y1="151.852" x2="365.645" y2="163.346" stroke="#E0E0E0"/>
<line x1="225.767" y1="151.852" x2="225.767" y2="163.346" stroke="#E0E0E0"/>
<line x1="295.918" y1="151.852" x2="295.918" y2="163.346" stroke="#E0E0E0"/>
<line x1="156.286" y1="151.852" x2="156.286" y2="163.346" stroke="#E0E0E0"/>
<line x1="330.905" y1="151.852" x2="330.905" y2="163.346" stroke="#E0E0E0"/>
<line x1="191.026" y1="151.852" x2="191.026" y2="163.346" stroke="#E0E0E0"/>
<line x1="260.509" y1="151.852" x2="260.509" y2="163.346" stroke="#E0E0E0"/>
<line x1="121.548" y1="151.852" x2="121.548" y2="163.346" stroke="#E0E0E0"/>
<line x1="349.185" y1="152.457" x2="349.185" y2="163.951" stroke="#E0E0E0"/>
<line x1="209.307" y1="152.457" x2="209.307" y2="163.951" stroke="#E0E0E0"/>
<line x1="279.404" y1="152.457" x2="279.404" y2="163.951" stroke="#E0E0E0"/>
<line x1="139.829" y1="152.457" x2="139.829" y2="163.951" stroke="#E0E0E0"/>
<line x1="314.446" y1="152.457" x2="314.446" y2="163.951" stroke="#E0E0E0"/>
<line x1="174.569" y1="152.457" x2="174.569" y2="163.951" stroke="#E0E0E0"/>
<path d="M244.009 152.457V163.951" stroke="#E0E0E0"/>
<line x1="105.089" y1="152.457" x2="105.089" y2="163.951" stroke="#E0E0E0"/>
<line x1="86.7402" y1="152.457" x2="86.7402" y2="163.951" stroke="#E0E0E0"/>
<line x1="17.0142" y1="152.457" x2="17.0142" y2="163.951" stroke="#E0E0E0"/>
<line x1="52.001" y1="152.457" x2="52.001" y2="163.951" stroke="#E0E0E0"/>
<line x1="70.2808" y1="152.457" x2="70.2808" y2="163.951" stroke="#E0E0E0"/>
<line x1="35.543" y1="152.457" x2="35.543" y2="163.951" stroke="#E0E0E0"/>
<line x1="489" y1="227.975" y2="227.975" stroke="#E0E0E0"/>
<line x1="489" y1="239.47" y2="239.47" stroke="#E0E0E0"/>
<line x1="489.5" y1="227.475" x2="489.5" y2="238.97" stroke="#E0E0E0"/>
<line x1="436.287" y1="227.475" x2="436.287" y2="238.97" stroke="#E0E0E0"/>
<line x1="471.152" y1="227.475" x2="471.152" y2="238.97" stroke="#E0E0E0"/>
<line x1="401.425" y1="227.475" x2="401.425" y2="238.97" stroke="#E0E0E0"/>
<line x1="489.5" y1="228.08" x2="489.5" y2="239.575" stroke="#E0E0E0"/>
<line x1="419.774" y1="228.08" x2="419.774" y2="239.575" stroke="#E0E0E0"/>
<line x1="454.638" y1="228.08" x2="454.638" y2="239.575" stroke="#E0E0E0"/>
<line x1="384.911" y1="228.08" x2="384.911" y2="239.575" stroke="#E0E0E0"/>
<line x1="365.645" y1="227.475" x2="365.645" y2="238.97" stroke="#E0E0E0"/>
<line x1="225.767" y1="227.475" x2="225.767" y2="238.97" stroke="#E0E0E0"/>
<line x1="295.918" y1="227.475" x2="295.918" y2="238.97" stroke="#E0E0E0"/>
<line x1="156.286" y1="227.475" x2="156.286" y2="238.97" stroke="#E0E0E0"/>
<line x1="330.905" y1="227.475" x2="330.905" y2="238.97" stroke="#E0E0E0"/>
<line x1="191.026" y1="227.475" x2="191.026" y2="238.97" stroke="#E0E0E0"/>
<line x1="260.509" y1="227.475" x2="260.509" y2="238.97" stroke="#E0E0E0"/>
<line x1="121.548" y1="227.475" x2="121.548" y2="238.97" stroke="#E0E0E0"/>
<line x1="349.185" y1="228.08" x2="349.185" y2="239.575" stroke="#E0E0E0"/>
<line x1="209.307" y1="228.08" x2="209.307" y2="239.575" stroke="#E0E0E0"/>
<line x1="279.404" y1="228.08" x2="279.404" y2="239.575" stroke="#E0E0E0"/>
<line x1="139.829" y1="228.08" x2="139.829" y2="239.575" stroke="#E0E0E0"/>
<line x1="314.446" y1="228.08" x2="314.446" y2="239.575" stroke="#E0E0E0"/>
<line x1="174.569" y1="228.08" x2="174.569" y2="239.575" stroke="#E0E0E0"/>
<path d="M244.009 228.08V239.575" stroke="#E0E0E0"/>
<line x1="105.089" y1="228.08" x2="105.089" y2="239.575" stroke="#E0E0E0"/>
<line x1="86.7402" y1="228.08" x2="86.7402" y2="239.575" stroke="#E0E0E0"/>
<line x1="17.0142" y1="228.08" x2="17.0142" y2="239.575" stroke="#E0E0E0"/>
<line x1="52.001" y1="228.08" x2="52.001" y2="239.575" stroke="#E0E0E0"/>
<line x1="70.2808" y1="228.08" x2="70.2808" y2="239.575" stroke="#E0E0E0"/>
<line x1="35.543" y1="228.08" x2="35.543" y2="239.575" stroke="#E0E0E0"/>
<line x1="489" y1="212.851" y2="212.851" stroke="#E0E0E0"/>
<line x1="489" y1="224.345" y2="224.345" stroke="#E0E0E0"/>
<line x1="489.5" y1="212.351" x2="489.5" y2="223.845" stroke="#E0E0E0"/>
<line x1="436.287" y1="212.351" x2="436.287" y2="223.845" stroke="#E0E0E0"/>
<line x1="471.152" y1="212.351" x2="471.152" y2="223.845" stroke="#E0E0E0"/>
<line x1="401.425" y1="212.351" x2="401.425" y2="223.845" stroke="#E0E0E0"/>
<line x1="489.5" y1="212.956" x2="489.5" y2="224.45" stroke="#E0E0E0"/>
<line x1="419.774" y1="212.956" x2="419.774" y2="224.45" stroke="#E0E0E0"/>
<line x1="454.638" y1="212.956" x2="454.638" y2="224.45" stroke="#E0E0E0"/>
<line x1="384.911" y1="212.956" x2="384.911" y2="224.45" stroke="#E0E0E0"/>
<line x1="365.645" y1="212.351" x2="365.645" y2="223.845" stroke="#E0E0E0"/>
<line x1="225.767" y1="212.351" x2="225.767" y2="223.845" stroke="#E0E0E0"/>
<line x1="295.918" y1="212.351" x2="295.918" y2="223.845" stroke="#E0E0E0"/>
<line x1="156.286" y1="212.351" x2="156.286" y2="223.845" stroke="#E0E0E0"/>
<line x1="330.905" y1="212.351" x2="330.905" y2="223.845" stroke="#E0E0E0"/>
<line x1="191.026" y1="212.351" x2="191.026" y2="223.845" stroke="#E0E0E0"/>
<line x1="260.509" y1="212.351" x2="260.509" y2="223.845" stroke="#E0E0E0"/>
<line x1="121.548" y1="212.351" x2="121.548" y2="223.845" stroke="#E0E0E0"/>
<line x1="349.185" y1="212.956" x2="349.185" y2="224.45" stroke="#E0E0E0"/>
<line x1="209.307" y1="212.956" x2="209.307" y2="224.45" stroke="#E0E0E0"/>
<line x1="279.404" y1="212.956" x2="279.404" y2="224.45" stroke="#E0E0E0"/>
<line x1="139.829" y1="212.956" x2="139.829" y2="224.45" stroke="#E0E0E0"/>
<line x1="314.446" y1="212.956" x2="314.446" y2="224.45" stroke="#E0E0E0"/>
<line x1="174.569" y1="212.956" x2="174.569" y2="224.45" stroke="#E0E0E0"/>
<path d="M244.009 212.956V224.45" stroke="#E0E0E0"/>
<line x1="105.089" y1="212.956" x2="105.089" y2="224.45" stroke="#E0E0E0"/>
<line x1="86.7402" y1="212.956" x2="86.7402" y2="224.45" stroke="#E0E0E0"/>
<line x1="17.0142" y1="212.956" x2="17.0142" y2="224.45" stroke="#E0E0E0"/>
<line x1="52.001" y1="212.956" x2="52.001" y2="224.45" stroke="#E0E0E0"/>
<line x1="70.2808" y1="212.956" x2="70.2808" y2="224.45" stroke="#E0E0E0"/>
<line x1="35.543" y1="212.956" x2="35.543" y2="224.45" stroke="#E0E0E0"/>
</svg>
