<svg width="66" height="75" viewBox="0 0 66 75" fill="none" xmlns="http://www.w3.org/2000/svg">
<path d="M33 0L40.6335 28.3303H65.3359L45.3512 45.8394L52.9847 74.1697L33 56.6606L13.0153 74.1697L20.6488 45.8394L0.664078 28.3303H25.3665L33 0Z" fill="#FCFBFD"/>
<path d="M33 5.76553L39.1851 28.7206L39.4841 29.8303H40.6335H61.3476L44.3627 44.7112L43.6597 45.3271L43.9029 46.2296L50.2478 69.7775L33.9885 55.5324L33 54.6663L32.0115 55.5324L15.7522 69.7775L22.0971 46.2296L22.3403 45.3271L21.6373 44.7112L4.6524 29.8303H25.3665H26.5159L26.8149 28.7206L33 5.76553Z" stroke="#FFD04B" stroke-opacity="0.1" stroke-width="3"/>
</svg>
