<svg width="138" height="138" viewBox="0 0 138 138" fill="none" xmlns="http://www.w3.org/2000/svg">
<circle cx="69" cy="69" r="64.5" fill="white" stroke="#FF2D20" stroke-width="9"/>
<path d="M37.25 89H30.45V59.8L26.1 58.2V53.35H32C34.2 53.35 35.6167 53.75 36.25 54.55C36.9167 55.35 37.25 56.9333 37.25 59.3V89ZM54.8238 82.3C55.3572 82.8 55.6238 83.8833 55.6238 85.55C55.6238 87.2167 55.3572 88.3167 54.8238 88.85C54.3238 89.3833 53.2405 89.65 51.5738 89.65C49.9072 89.65 48.8072 89.3833 48.2738 88.85C47.7405 88.3167 47.4738 87.2167 47.4738 85.55C47.4738 83.8833 47.7405 82.8 48.2738 82.3C48.8072 81.7667 49.9072 81.5 51.5738 81.5C53.2405 81.5 54.3238 81.7667 54.8238 82.3ZM54.7238 68.4C55.2572 68.9 55.5238 69.9833 55.5238 71.65C55.5238 73.3167 55.2572 74.4167 54.7238 74.95C54.2238 75.4833 53.1405 75.75 51.4738 75.75C49.8072 75.75 48.7072 75.4833 48.1738 74.95C47.6405 74.4167 47.3738 73.3167 47.3738 71.65C47.3738 69.9833 47.6405 68.9 48.1738 68.4C48.7072 67.8667 49.8072 67.6 51.4738 67.6C53.1405 67.6 54.2238 67.8667 54.7238 68.4ZM70.8406 72.75L71.9406 67.25L75.0406 68.7C76.3073 67.1 76.9406 65.0167 76.9406 62.45C76.9406 61.7833 76.5406 61.05 75.7406 60.25C74.974 59.45 73.7573 59.05 72.0906 59.05C70.4573 59.05 69.3406 59.4167 68.7406 60.15C68.1406 60.8833 67.8406 62.2667 67.8406 64.3H61.7406C61.7406 60.4667 62.6073 57.65 64.3406 55.85C66.1073 54.0167 68.7573 53.1 72.2906 53.1C79.5573 53.1 83.1906 56.2 83.1906 62.4C83.1906 66.0333 82.0906 68.9833 79.8906 71.25C82.424 72.6833 83.6906 75.4 83.6906 79.4C83.6906 82.5 82.6906 84.9333 80.6906 86.7C78.724 88.4333 75.9573 89.3 72.3906 89.3C68.824 89.3 66.1573 88.3833 64.3906 86.55C62.6573 84.7167 61.7906 82.2667 61.7906 79.2H68.1406C68.1406 79.7667 68.2073 80.3333 68.3406 80.9C68.5073 81.4333 68.9073 81.9833 69.5406 82.55C70.174 83.0833 71.174 83.35 72.5406 83.35C73.9406 83.35 75.0573 82.9167 75.8906 82.05C76.7573 81.15 77.1906 80.15 77.1906 79.05C77.1906 77.8833 76.974 77.0333 76.5406 76.5C76.1406 75.9667 75.8406 75.5833 75.6406 75.35C75.4406 75.0833 75.0573 74.8 74.4906 74.5C73.9573 74.2 73.5906 74 73.3906 73.9C73.1906 73.7667 72.7406 73.5667 72.0406 73.3C71.374 73 70.974 72.8167 70.8406 72.75ZM111.948 70.2V72.25C111.948 74.7167 111.865 76.7833 111.698 78.45C111.532 80.1167 111.198 81.6833 110.698 83.15C110.198 84.6167 109.498 85.7833 108.598 86.65C107.698 87.4833 106.515 88.1333 105.048 88.6C103.615 89.0667 101.865 89.3 99.7984 89.3C97.7318 89.3 95.9651 89.0667 94.4984 88.6C93.0651 88.1 91.8984 87.4333 90.9984 86.6C90.0984 85.7667 89.3984 84.6167 88.8984 83.15C88.3984 81.65 88.0651 80.0667 87.8984 78.4C87.7318 76.7333 87.6484 74.65 87.6484 72.15V70.25C87.6484 65.1167 88.0484 61.3333 88.8484 58.9C89.3484 57.4333 90.0484 56.3 90.9484 55.5C92.8484 53.9 95.7984 53.1 99.7984 53.1C104.465 53.1 107.648 54.3667 109.348 56.9C111.082 59.4333 111.948 63.8667 111.948 70.2ZM105.248 73.8V68.25C105.215 64.95 104.848 62.6333 104.148 61.3C103.448 59.9667 101.998 59.3 99.7984 59.3C97.5984 59.3 96.1484 59.9667 95.4484 61.3C94.7484 62.6 94.3818 64.85 94.3484 68.05V73.8C94.3818 77.3667 94.7318 79.8167 95.3984 81.15C96.0651 82.45 97.5484 83.1 99.8484 83.1C102.148 83.1 103.615 82.4667 104.248 81.2C104.882 79.9333 105.215 77.4667 105.248 73.8Z" fill="#55538A"/>
</svg>
